PathFileType	4	(X/Y/Z)	C:/Users/opensim2020/Desktop/walking_exp_matlab/subject03_walking13_straight_02.trc	
DataRate	CameraRate	NumFrames	NumMarkers	Units	OrigDataRate	OrigDataStartFrame	OrigNumFrames	
100.00	100.00	6	46	mm	100.00	1199	193	
Frame#	Time	LFHD			RFHD			LBHD			RBHD			C7			T10			CLAV			STRN			RBAK			LSHO			LUPA			LELB			LFRM			LWRA			LWRB			LFIN			RSHO			RUPA			RELB			RFRM			RWRA			RWRB			RFIN			LASI			RASI			LPSI			RPSI			LTHI			LKNE			LTIB			LANK			LHEE			LTOE			RTHI			RKNE			RTIB			RANK			RHEE			RTOE			*39			*40			*41			*42			*43			*44			*45			
		X1	Y1	Z1	X2	Y2	Z2	X3	Y3	Z3	X4	Y4	Z4	X5	Y5	Z5	X6	Y6	Z6	X7	Y7	Z7	X8	Y8	Z8	X9	Y9	Z9	X10	Y10	Z10	X11	Y11	Z11	X12	Y12	Z12	X13	Y13	Z13	X14	Y14	Z14	X15	Y15	Z15	X16	Y16	Z16	X17	Y17	Z17	X18	Y18	Z18	X19	Y19	Z19	X20	Y20	Z20	X21	Y21	Z21	X22	Y22	Z22	X23	Y23	Z23	X24	Y24	Z24	X25	Y25	Z25	X26	Y26	Z26	X27	Y27	Z27	X28	Y28	Z28	X29	Y29	Z29	X30	Y30	Z30	X31	Y31	Z31	X32	Y32	Z32	X33	Y33	Z33	X34	Y34	Z34	X35	Y35	Z35	X36	Y36	Z36	X37	Y37	Z37	X38	Y38	Z38	X39	Y39	Z39	X40	Y40	Z40	X41	Y41	Z41	X42	Y42	Z42	X43	Y43	Z43	X44	Y44	Z44	X45	Y45	Z45	X46	Y46	Z46	

121	1.200	1461.83679	-223.19345	1603.21375	1330.02112	-204.33923	1608.62805	1474.26746	-95.27479	1560.74829	1343.60034	-81.69604	1565.82678	1408.72888	-56.62439	1397.24963	1398.97351	-35.67969	1081.65027	1406.44263	-182.29982	1325.56067	1409.26831	-231.37123	1162.38660	1305.12097	-13.49240	1219.93640	1564.10828	-131.41519	1357.97229	1626.44934	-95.92593	1158.70898	1634.23291	-81.76000	1035.36169	1633.97217	-72.61993	904.60144	1604.18542	-48.98153	785.03351	1658.27844	-36.37555	797.92377	1644.63123	3.07012	718.85724	1246.87292	-134.74733	1352.26660	1162.70325	-170.92288	1139.30322	1147.13867	-214.40260	1037.74084	1154.69275	-293.12686	928.08075	1198.54053	-365.80768	868.16278	1158.40857	-342.25629	841.11896	1170.14294	-403.32535	802.51947	1515.73975	-209.32680	928.52905	1278.31384	-200.20667	918.87274	1474.64758	-44.44406	940.86700	1324.14148	-41.51281	950.08820	1564.46289	-235.72368	635.18884	1517.39563	-297.97833	476.49036	1520.68384	-299.40619	277.83920	1486.96301	-334.78128	70.39277	1450.23889	-296.91513	35.00996	1456.50098	-484.11554	45.09614	1237.86914	-97.77103	631.48993	1266.69775	-68.82932	452.57309	1263.02344	64.76946	306.59863	1308.36609	198.94727	135.92288	1358.75000	251.40034	131.32893	1332.15112	95.00616	33.70678																					 
122	1.210	1462.13428	-236.19627	1604.30542	1330.39661	-216.91460	1609.45752	1475.10217	-108.38351	1561.90149	1344.53333	-94.31817	1566.78369	1410.48853	-70.09328	1398.15698	1399.87683	-49.89625	1082.14624	1407.36340	-195.77321	1326.72473	1410.06519	-245.49362	1163.70813	1306.89648	-26.83373	1220.19519	1565.22461	-145.65506	1358.96106	1628.01208	-109.94384	1159.90674	1635.28845	-95.27812	1036.41467	1634.57666	-85.36221	905.72662	1604.72461	-60.04835	786.58789	1659.14063	-48.90132	799.01361	1644.95984	-5.71675	721.44147	1247.91956	-147.23811	1352.92395	1164.26575	-182.76306	1139.54199	1148.63208	-226.02602	1037.77185	1156.01611	-304.20462	927.69482	1199.42737	-376.96481	867.60852	1159.63184	-352.88623	840.59650	1170.97900	-413.95941	801.82721	1516.24084	-224.56696	930.14960	1279.40955	-214.98283	919.10101	1475.81555	-59.47287	942.55237	1325.06628	-56.61541	950.48877	1565.96045	-248.31911	636.59277	1518.96106	-312.27023	478.08646	1522.49854	-310.53564	278.51947	1487.59692	-337.57678	70.55701	1450.74622	-298.02390	35.83892	1458.42078	-487.45438	42.06767	1238.20142	-115.38873	630.55377	1265.30627	-88.92661	451.32117	1262.78955	50.04330	310.03381	1308.34619	189.56752	144.22958	1359.71753	240.85391	142.85492	1332.25610	93.68935	33.74841				1424.51599	-148.20137	1667.08545															 
123	1.220	1462.46863	-249.08636	1605.38196	1330.75378	-229.39273	1610.26880	1475.87842	-121.37367	1562.91309	1345.47742	-106.87111	1567.62036	1411.87927	-83.53909	1399.05078	1401.28625	-64.03855	1082.72339	1408.01514	-208.95151	1327.75232	1410.86279	-259.65326	1165.17529	1308.48291	-40.31129	1220.50134	1566.12366	-160.11868	1360.27795	1629.42041	-124.34091	1161.36829	1636.25403	-109.42202	1037.84326	1635.07117	-98.82096	907.23328	1605.13123	-72.12788	788.28052	1659.99182	-62.26139	800.40735	1645.52490	-16.11923	724.07074	1249.00037	-159.85837	1353.83484	1165.87598	-194.54527	1140.05737	1150.31750	-237.40198	1038.09985	1157.37988	-314.89105	927.39520	1200.45850	-387.41852	866.90576	1160.79529	-362.95279	839.96234	1171.73303	-423.84641	800.79944	1516.69092	-239.57529	932.05756	1280.62854	-229.61375	919.86285	1476.99866	-74.37796	944.32233	1326.07629	-71.41663	950.79376	1567.22498	-259.89133	637.33392	1520.31201	-326.47412	478.91629	1524.55200	-320.21201	278.38174	1486.99585	-338.47409	70.59209	1450.64172	-298.55087	36.42453	1458.91614	-489.49603	41.04863	1238.14929	-133.67352	629.59662	1263.54053	-110.59659	449.93448	1262.06470	33.43023	313.51639	1308.24219	177.96739	152.65913	1360.86816	227.57906	154.86115	1332.38269	91.80386	33.92620				1424.97302	-161.10753	1668.06641															 
124	1.230	1462.78906	-261.88571	1606.57666	1331.14429	-241.81587	1611.30493	1476.55054	-134.24715	1563.89673	1346.11060	-119.52234	1568.31665	1413.27246	-96.93290	1400.02478	1402.81653	-78.09129	1083.50342	1408.87439	-222.51448	1329.01794	1411.54895	-273.65906	1166.61841	1310.20728	-53.62376	1221.11548	1567.11707	-174.23468	1361.87219	1630.79004	-139.10313	1163.01831	1637.08020	-123.92643	1039.37561	1635.66406	-112.88608	908.93878	1605.90088	-85.30688	790.21393	1660.85925	-76.38596	801.97186	1646.34814	-28.18601	726.47156	1250.05615	-172.38628	1354.84558	1167.54309	-206.39948	1140.72742	1152.12341	-248.58203	1038.48120	1158.75647	-325.20789	927.11884	1201.47778	-397.30945	865.87958	1161.94641	-372.39746	839.12732	1172.46033	-432.94174	799.22656	1517.19153	-254.04810	933.97626	1281.91797	-243.95358	920.84674	1477.96777	-88.83865	946.17169	1326.97852	-85.79646	951.20825	1567.99792	-271.71939	637.91882	1521.00476	-339.77954	479.37000	1526.02954	-327.94763	278.85895	1486.72070	-339.89041	70.70392	1451.19482	-298.66281	36.89896	1457.04126	-490.28104	39.86086	1238.10693	-152.74240	628.55408	1261.88867	-133.52016	448.48172	1261.28857	14.84257	316.93747	1307.81018	163.62148	160.79094	1361.77368	211.49937	167.00966	1332.82166	90.15988	34.14684				1425.46716	-173.92271	1669.07849															 
125	1.240	1463.08289	-274.56110	1607.82654	1331.45959	-254.18907	1612.32666	1477.09180	-147.07526	1564.94385	1346.82117	-131.98756	1569.19604	1414.41284	-110.01942	1400.73950	1404.30579	-91.77622	1084.36670	1409.55603	-235.72153	1330.15234	1412.25244	-287.42453	1168.05591	1311.86841	-66.96188	1221.71509	1567.85791	-188.50554	1363.41882	1632.10730	-154.05038	1164.76099	1637.99133	-138.73807	1041.02576	1636.19177	-127.38934	910.59406	1607.07764	-99.54209	792.28015	1661.73157	-91.15753	803.54706	1647.36707	-41.71505	728.53229	1251.10303	-184.94019	1355.89929	1169.09729	-218.10960	1141.35632	1153.95093	-259.66708	1038.88965	1160.15662	-335.15338	926.67670	1202.51611	-406.88022	864.51508	1162.98938	-381.49527	838.09119	1173.25366	-441.45123	797.36127	1517.94141	-268.11331	935.84076	1283.32129	-257.83609	922.02112	1478.58704	-102.74759	948.06140	1327.72852	-99.72999	951.69952	1568.09399	-285.14825	639.16534	1521.61340	-351.56943	479.72437	1526.66895	-334.79910	279.50241	1486.66077	-340.58508	70.83145	1451.32166	-298.67007	37.14120	1457.04980	-491.03729	39.27417	1238.24524	-172.34148	627.19305	1261.04663	-157.53677	446.98755	1260.78979	-5.95787	319.96155	1307.38525	147.06888	168.55836	1361.80469	192.88091	179.14642	1333.93018	89.13380	34.25042				1425.85242	-186.44768	1670.10046															 
126	1.250	1463.36743	-287.09219	1608.98608	1331.78052	-266.59979	1613.32837	1477.51318	-159.89368	1565.92944	1347.33997	-144.50398	1569.94495	1415.58203	-123.03226	1401.35413	1405.69897	-105.25742	1085.28540	1410.25964	-249.12975	1331.38196	1413.00720	-301.18887	1169.35840	1313.39661	-80.22904	1222.17517	1568.47656	-202.99947	1365.00610	1633.33167	-169.11595	1166.48303	1638.91125	-153.60269	1042.72192	1637.07141	-142.49037	912.34021	1607.59143	-114.18935	793.85779	1662.64893	-106.60746	805.07684	1648.59668	-56.64509	730.17279	1252.08093	-197.46758	1356.85583	1170.62756	-229.72646	1141.96777	1155.76062	-270.58536	1039.21582	1161.48059	-344.78915	926.03082	1203.55542	-415.88733	862.80280	1164.00977	-390.11472	836.78271	1174.04187	-449.39053	795.04657	1518.89929	-281.82870	937.66675	1284.68591	-271.33835	923.15918	1478.96606	-116.25610	949.75293	1328.30408	-113.31967	952.00842	1568.48291	-300.18155	641.41296	1522.08667	-361.92358	479.88931	1526.99292	-340.73972	279.76154	1486.57581	-340.75189	71.12747	1451.37585	-298.77029	37.11330	1456.74243	-491.27505	38.77643	1238.61572	-192.08708	625.67670	1261.10217	-182.24954	445.37436	1260.78967	-28.41027	322.47769	1305.83826	128.00151	174.52100	1360.11206	172.51401	191.12508	1335.01892	85.52060	36.26873				1426.29626	-198.71541	1671.06860															 
